<?xml version="1.0" encoding="utf-8"?>
<svg height="100px" width="100px" fill="#000000" version="1.1" x="0px" y="0px" viewBox="0 0 100 82.842" enable-background="new 0 0 100 82.842" xmlns="http://www.w3.org/2000/svg">
  <path d="M 37.152 46.74 C 39.105 46.76 41.088 46.823 42.894 46.921 L 35.091 36.159 C 33.934 35.514 29.764 32.844 26.473 31.804 L 26.629 31.12 C 26.658 31.12 33.191 32.17 36.356 34.977 L 45.023 46.872 L 45.335 47.106 C 46.273 47.194 47.166 47.296 47.908 47.409 L 40.935 37.848 L 43.508 30.236 C 43.176 26.916 37.785 16.383 37.776 16.374 L 38.323 15.939 C 42.644 19.528 45.276 30.348 45.276 30.348 L 42.874 37.545 L 48.313 44.982 C 48.152 43.688 48.064 42.174 48.064 40.514 C 48.206 35.939 48.425 32.35 49.915 31.979 C 51.419 32.35 51.634 35.929 51.775 40.514 C 51.775 42.155 51.677 43.649 51.531 44.943 L 56.936 37.546 L 54.524 30.158 C 54.984 28.937 57.968 18.849 61.508 15.929 L 62.04 16.373 C 62.04 16.383 56.635 26.915 56.283 30.094 L 58.881 37.838 L 51.903 47.389 C 52.655 47.306 53.539 47.194 54.496 47.106 L 54.799 46.872 L 63.5 34.919 C 66.615 32.17 73.153 31.13 73.188 31.11 L 73.359 31.803 C 70.058 32.833 65.918 35.485 64.726 36.158 L 56.933 46.92 C 58.74 46.822 60.703 46.759 62.68 46.759 C 69.54 46.862 76.44 47.316 76.728 50.426 C 76.728 50.738 76.65 51.046 76.494 51.339 C 75.669 52.994 73.379 53.429 70.532 53.458 C 65.595 53.458 58.779 51.905 54.36 50.772 L 52.964 52.085 C 54.58 52.588 57.085 53.628 58.789 55.43 L 58.989 55.752 L 59.809 62.358 L 64.399 67.968 L 63.877 68.451 L 58.193 63.139 L 57.387 56.518 C 55.956 55.014 53.447 54.062 52.05 53.642 C 51.864 54.062 51.606 54.448 51.235 54.721 C 51.215 54.814 51.196 54.902 51.186 54.975 L 51.206 54.965 C 52.026 54.965 53.076 55.336 53.071 56.498 C 53.076 56.561 53.076 56.64 53.071 56.679 C 52.895 58.017 51.582 58.774 50.742 59.179 L 50.317 66.957 L 49.614 66.967 L 48.852 59.057 C 48.037 58.603 46.923 57.866 46.796 56.669 C 46.796 56.61 46.781 56.547 46.781 56.498 C 46.781 55.346 47.836 54.965 48.641 54.965 L 48.651 54.965 C 48.641 54.892 48.617 54.799 48.617 54.721 C 48.236 54.438 47.977 54.052 47.806 53.627 C 46.39 54.062 43.875 54.984 42.528 56.327 L 41.503 63.339 L 35.932 68.451 L 35.429 67.968 L 39.941 62.514 L 40.927 55.561 L 41.03 55.439 C 42.734 53.618 45.244 52.607 46.845 52.085 L 45.468 50.772 C 41.054 51.934 34.223 53.458 29.291 53.467 C 26.444 53.428 24.149 52.993 23.319 51.338 C 23.173 51.045 23.104 50.742 23.109 50.444 C 23.383 47.306 30.282 46.852 37.152 46.74 Z"/>
</svg>